<svg xmlns="http://www.w3.org/2000/svg" xml:space="preserve" id="svg1" width="256" height="256" version="1.1" viewBox="0 0 67.733 67.733"><defs id="defs1"><style id="style1-3">.cls-1{fill:#231f20}</style></defs><g id="layer1" style="display:inline"><g id="g1" style="display:inline;fill:#483737;stroke-width:272.528;stroke-dasharray:none" transform="matrix(.12628 0 0 .12628 1.006 2.864)"><g id="g8" style="display:inline;fill:#f2f2f2"><path id="path7" d="m436.209 567.081-29.634 39.695-30.155 40.39-19.917-46.348-19.543-45.474 49.584 5.864z" style="display:inline;fill:#f2f2f2;fill-opacity:1;stroke-width:3.3;stroke-dasharray:none;paint-order:fill markers stroke" transform="matrix(1.64915 -1.08973 1.03427 1.45865 -1025.13 -65.205)"/><path id="path6" d="M257.172 22.963c132.74 0 238.943 85.966 238.943 190.478 0 104.513-106.203 190.477-238.943 190.477S18.227 317.954 18.227 213.441c0-104.512 106.205-190.478 238.945-190.478Z" style="display:inline;fill:#f2f2f2;fill-opacity:1;stroke-width:.849629;stroke-dasharray:none;paint-order:fill markers stroke"/></g><path id="path1" d="M255.994 9.95c138.623 0 249.826 82.358 249.826 207.152 0 119.198-86.379 194.94-215.865 202.152l-5.719.318-1.578 77.864-139.777-84.018-.018-.01C53.803 360.626 6.18 293.742 6.18 217.102 6.18 92.308 117.372 9.949 255.994 9.949Zm0 25.8C145.167 35.75 31.98 97.68 31.98 217.102c0 67.346 42.546 125.816 124.038 174.107l101.746 61.164.564-27.598.602-29.638 29.59-1.649c119.152-6.637 191.5-72.35 191.5-176.386C480.02 97.68 366.82 35.75 255.994 35.75Z" style="display:inline;fill:#483737;fill-opacity:1;stroke-width:272.528;stroke-dasharray:none"/></g><g id="g9" style="display:inline;fill:none;stroke:#c43131;stroke-width:1.5;stroke-linecap:round;stroke-linejoin:round" transform="matrix(2.33136 0 0 2.33136 14.453 12.437)"><path id="path1-9" d="m2.75 9.25 1.5 2.5 2 1.5m-4.5 0 1 1m1.5-2.5-1.5 1.5m3-1 8.5-8.5v-2h-2l-8.5 8.5" style="fill:none"/></g></g></svg>