<?xml version="1.0" encoding="UTF-8" standalone="no"?>
<!--Created with Inkscape (http://www.inkscape.org/)-->

<svg
   xml:space="preserve"
   id="svg1"
   width="256"
   height="256"
   version="1.1"
   viewBox="0 0 67.733 67.733"
   xmlns="http://www.w3.org/2000/svg"
   xmlns:svg="http://www.w3.org/2000/svg"><defs
     id="defs1"><style
       id="style1-3">.cls-1{fill:#231f20}</style></defs><g
     id="layer1"
     style="display:inline"><g
       id="g1"
       style="display:inline;fill:#483737;stroke-width:272.528;stroke-dasharray:none"
       transform="matrix(0.12628,0,0,0.12628,1.006,2.864)"><g
         id="g8"
         style="display:inline;fill:#f2f2f2"><path
           id="path7"
           d="m 436.209,567.081 -29.634,39.695 -30.155,40.39 -19.917,-46.348 -19.543,-45.474 49.584,5.864 z"
           style="display:inline;fill:#f2f2f2;fill-opacity:1;stroke-width:3.3;stroke-dasharray:none;paint-order:fill markers stroke"
           transform="matrix(1.64915,-1.08973,1.03427,1.45865,-1025.13,-65.205)" /><path
           id="path6"
           d="m 257.172,22.963 c 132.74,0 238.943,85.966 238.943,190.478 0,104.513 -106.203,190.477 -238.943,190.477 -132.74,0 -238.945,-85.964 -238.945,-190.477 0,-104.512 106.205,-190.478 238.945,-190.478 z"
           style="display:inline;fill:#f2f2f2;fill-opacity:1;stroke-width:0.849629;stroke-dasharray:none;paint-order:fill markers stroke" /></g><path
         id="path1"
         d="m 255.994,9.95 c 138.623,0 249.826,82.358 249.826,207.152 0,119.198 -86.379,194.94 -215.865,202.152 l -5.719,0.318 -1.578,77.864 -139.777,-84.018 -0.018,-0.01 C 53.803,360.626 6.18,293.742 6.18,217.102 6.18,92.308 117.372,9.949 255.994,9.949 Z m 0,25.8 C 145.167,35.75 31.98,97.68 31.98,217.102 c 0,67.346 42.546,125.816 124.038,174.107 l 101.746,61.164 0.564,-27.598 0.602,-29.638 29.59,-1.649 c 119.152,-6.637 191.5,-72.35 191.5,-176.386 C 480.02,97.68 366.82,35.75 255.994,35.75 Z"
         style="display:inline;fill:#483737;fill-opacity:1;stroke-width:272.528;stroke-dasharray:none" /></g><g
       id="g2"
       style="display:none;fill:none;stroke:#c43131;stroke-width:1.5;stroke-linecap:round;stroke-linejoin:round;stroke-dasharray:none"
       transform="matrix(2.33356,0,0,2.33356,14.419,12.408)"><path
         id="path1-8"
         d="m 2.75,9.25 1.5,2.5 2,1.5 m -4.5,0 1,1 m 1.5,-2.5 -1.5,1.5 m 3,-1 8.5,-8.5 v -2 h -2 l -8.5,8.5"
         style="display:inline;stroke-width:1.5;stroke-dasharray:none" /><path
         id="path2"
         d="M 10.25,12.25 8,10 m 2,-2 2.25,2.25 m 1,-1 -1.5,2.5 -2,1.5 m 4.5,0 -1,1 m -1.5,-2.5 1.5,1.5 M 6,8 1.75,3.75 v -2 h 2 L 8,6"
         style="stroke-width:1.5;stroke-dasharray:none" /></g><path
       fill="#000000"
       d="m 42.057557,12.060879 c -4.971287,0 -9.00064,4.029034 -9.00064,9.000561 0,4.971124 4.029032,9.000559 9.000559,9.000559 4.971123,0 9.002974,-4.029032 9.002974,-9.000559 0,-4.971124 -4.031608,-9.000561 -9.003055,-9.000561 z m 0,1.518531 c 4.132011,0 7.48203,3.350179 7.48203,7.48203 0,4.132172 -3.350261,7.482029 -7.48203,7.482029 -4.132253,0 -7.479615,-3.35018 -7.479615,-7.482029 0,-2.65765 1.384415,-4.990675 3.471983,-6.317892 -0.383516,0.460831 -0.615941,1.052958 -0.615941,1.699468 0,1.468811 1.191172,2.659902 2.659983,2.659902 1.46873,0 2.659901,-1.191091 2.659901,-2.659902 0,-1.405012 -1.091089,-2.55274 -2.471483,-2.649925 0.569037,-0.138378 1.163334,-0.213681 1.775091,-0.213681 z m -5.0309,5.23179 c -0.677246,0 -1.229307,0.549083 -1.229307,1.226891 0,0.677405 0.551417,1.226893 1.229307,1.226893 0.677406,0 1.22689,-0.548844 1.22689,-1.226893 0,-0.677245 -0.548921,-1.226891 -1.22689,-1.226891 z m -6.139448,5.870577 c -0.06807,0.627203 -0.188419,1.200342 -0.362034,1.722154 l 6.315477,6.315474 c 0.518433,-0.174819 1.08795,-0.300329 1.709604,-0.372089 l -7.663047,-7.66546 z M 29.831277,27.8371 c -0.395018,0.590116 -0.891247,1.077493 -1.48836,1.465675 l 5.598971,5.601467 c 0.389547,-0.596152 0.878534,-1.092541 1.468247,-1.488362 z m -2.931507,2.149516 c -0.515375,0.171845 -1.077895,0.298959 -1.686916,0.377076 2.618227,2.551297 5.031866,5.031949 7.657977,7.65806 0.08069,-0.606125 0.208772,-1.166393 0.382148,-1.679433 L 26.89985,29.986616 Z m -1.262049,2.928931 -9.528566,9.500891 V 44.18131 L 26.507566,33.785314 25.637721,32.915626 Z m 1.930846,1.93085 -11.459412,11.459251 v 1.093742 h 4.321878 l 9.845142,-9.845305 z"
       id="path1-88"
       style="display:inline;fill:#008000;stroke:#000000;stroke-width:0;stroke-linecap:round;stroke-linejoin:round;stroke-dasharray:none;stroke-opacity:1" /></g></svg>
