<?xml version="1.0" encoding="iso-8859-1"?>
<!-- Uploaded to: SVG Repo, www.svgrepo.com, Generator: SVG Repo Mixer Tools -->
<svg fill="#000000" height="800px" width="800px" version="1.1" id="Capa_1" xmlns="http://www.w3.org/2000/svg" xmlns:xlink="http://www.w3.org/1999/xlink" 
	 viewBox="0 0 612.003 612.003" xml:space="preserve">
<g>
	<g>
		<path d="M609.707,243.824l-66.984-89.758l35.964-106.065c1.414-4.175,0.336-8.792-2.781-11.905
			c-2.21-2.21-5.177-3.394-8.203-3.394c-1.239,0-2.493,0.199-3.708,0.608l-106.06,35.964L368.18,2.294
			C366.136,0.774,363.698,0,361.248,0c-1.794,0-3.597,0.416-5.254,1.263c-3.929,1.998-6.385,6.055-6.325,10.464l1.434,111.983
			l-91.441,64.667c-3.595,2.542-5.438,6.92-4.75,11.265c0.69,4.358,3.794,7.942,8.004,9.254l106.948,33.236L403.1,349.086
			c0.571,1.825,1.566,3.451,2.869,4.748c1.701,1.704,3.918,2.856,6.385,3.254c0.602,0.095,1.208,0.142,1.807,0.142
			c3.721,0,7.27-1.801,9.458-4.896l64.672-91.441l111.972,1.436c0.049,0,0.095,0,0.142,0c4.361,0,8.345-2.434,10.33-6.319
			C612.74,252.078,612.336,247.361,609.707,243.824z"/>
		<path d="M259.681,256.408L19.864,496.23c-26.484,26.48-26.48,69.422,0,95.906c26.486,26.489,69.426,26.489,95.906,0.007
			l239.815-239.82l-22.736-73.169L259.681,256.408z"/>
	</g>
</g>
</svg>